<svg width="512" height="512" xmlns="http://www.w3.org/2000/svg" preserveAspectRatio="xMidYMid meet">
 <metadata>Created by potrace 1.16, written by Peter Selinger 2001-2019</metadata>

 <g>
  <title>background</title>
  <rect fill="none" id="canvas_background" height="402" width="582" y="-1" x="-1"/>
 </g>
 <g>
  <title>Layer 1</title>
  <g id="svg_1" fill="#000000" transform="translate(0,512) scale(0.10000000149011612,-0.10000000149011612) ">
   <path stroke="#fff" fill="#34cd9e" id="svg_2" d="m225,4796c-58,-27 -94,-63 -127,-126l-23,-45l0,-865l0,-865l23,-47c13,-26 41,-63 64,-83c78,-71 67,-70 526,-73l414,-3l-7,-82c-26,-321 -78,-532 -181,-732c-70,-136 -119,-202 -238,-320c-128,-127 -247,-211 -441,-308c-77,-38 -145,-80 -167,-102c-49,-50 -71,-117 -66,-203c3,-61 14,-88 113,-297c60,-126 120,-242 133,-257c13,-16 45,-41 71,-56c40,-24 56,-27 132,-27l86,0l156,77c343,169 570,331 807,574c188,193 297,344 408,561c111,219 180,445 227,749c55,351 58,417 62,1421c4,901 4,933 -15,975c-28,63 -66,103 -124,132l-52,26l-865,0l-866,0l-50,-24z"/>
   <path stroke="#fff" fill="#34cd9e" id="svg_3" d="m3145,4796c-61,-29 -97,-65 -127,-131l-23,-50l0,-860l0,-860l23,-47c13,-26 41,-63 64,-83c78,-71 67,-70 527,-73l413,-3l-7,-92c-33,-455 -160,-783 -398,-1026c-128,-131 -256,-221 -463,-325c-190,-94 -241,-161 -232,-303c4,-62 14,-88 117,-306c87,-182 122,-245 149,-269c99,-86 204,-91 372,-15c473,214 871,541 1132,931c235,352 340,690 404,1302c14,133 18,312 21,1096c4,905 4,939 -15,980c-28,63 -66,103 -124,132l-52,26l-865,0l-866,0l-50,-24z"/>
  </g>
 </g>
</svg>